<svg xmlns="http://www.w3.org/2000/svg" xmlns:xlink="http://www.w3.org/1999/xlink" version="1.1" width="1000" height="1000" viewBox="0 0 1000 1000" xml:space="preserve">
<desc>Created with Fabric.js 3.5.0</desc>
<defs>
</defs>
<rect x="0" y="0" width="100%" height="100%" fill="rgba(255,255,255,0)"/>
<g transform="matrix(1 0 0 1 495.0412 130.5452)" style="filter: url(#SVGID_365);" id="977067">
<filter id="SVGID_365" y="-34.75%" height="169.5%" x="-21.85%" width="143.7%">
	<feGaussianBlur in="SourceAlpha" stdDeviation="5"/>
	<feOffset dx="10" dy="10" result="oBlur"/>
	<feFlood flood-color="rgb(0,0,0)" flood-opacity="1"/>
	<feComposite in2="oBlur" operator="in"/>
	<feMerge>
		<feMergeNode/>
		<feMergeNode in="SourceGraphic"/>
	</feMerge>
</filter>
		
<path xml:space="preserve" font-family="Modak" font-size="120" style="stroke: rgb(11,32,231); stroke-opacity: 0.51; stroke-width: 5; stroke-dasharray: none; stroke-linecap: butt; stroke-dashoffset: 0; stroke-linejoin: miter; stroke-miterlimit: 4; is-custom-font: none; font-file-url: none; fill: rgb(255,255,255); fill-rule: nonzero; opacity: 1; white-space: pre;" d="M-349.39-7.95L-345.35-7.95L-345.35 33.24Q-348.05 35.59-352.56 37.17Q-357.07 38.75-363.52 38.75Q-369.96 38.75-374.47 35.88L-374.47 35.88Q-379.57 32.77-379.57 27.09L-379.57 27.09L-379.57-10.64L-393.22-10.64Q-397.44-16.68-397.44-23.83L-397.44-23.83Q-397.44-28.69-395.89-32.29Q-394.34-35.90-392.05-37.89L-392.05-37.89L-331.46-37.89Q-329.77-35.25-328.65-31.50Q-327.54-27.75-327.54-24.06L-327.54-24.06Q-327.54-17.15-330.59-13.89Q-333.63-10.64-338.79-10.64L-338.79-10.64L-355.96-10.64Q-356.13-10.23-356.13-9.76L-356.13-9.76Q-356.13-8.71-354.90-8.36L-354.90-8.36Q-353.61-7.95-349.39-7.95L-349.39-7.95ZM-295.14-15.04L-295.14-15.04L-295.14 8.17Q-295.14 16.90-290.92 19.53L-290.92 19.53Q-290.86 19.83-290.86 20.65L-290.86 20.65L-290.86 21.70Q-290.86 30.31-295.55 34.65L-295.55 34.65Q-299.88 38.75-307.12 38.75Q-314.36 38.75-319.04 34.65L-319.04 34.65Q-324.96 29.44-324.96 19.42L-324.96 19.42L-324.96-18.67Q-323.91-19.43-322.68-19.90Q-321.45-20.37-320.10-21.07L-320.10-21.07Q-322.62-22.36-324.67-25.56Q-326.72-28.75-326.72-33.03L-326.72-33.03Q-326.72-40.41-321.86-45.10Q-316.99-49.78-309.93-49.78Q-302.87-49.78-298.10-45.01Q-293.32-40.23-293.32-33.03L-293.32-33.03Q-293.32-27.23-296.95-22.86Q-300.59-18.49-305.80-17.38L-305.80-17.38Q-305.80-15.15-304.10-15.15L-304.10-15.15Q-301.11-15.15-298.01-17.50L-298.01-17.50Q-295.66-15.68-295.14-15.04ZM-193.18-2.97L-193.42 8.69Q-193.42 12.97-192.48 15.67Q-191.54 18.36-189.20 19.83L-189.20 19.83Q-189.14 20.12-189.14 20.82L-189.14 20.82L-189.14 21.70Q-189.14 29.73-193.83 34.24Q-198.52 38.75-205.93 38.75Q-213.34 38.75-217.85 34.71L-217.85 34.71Q-223.18 30.02-223.18 20.35L-223.18 20.35L-223.18 1.84Q-223.18-2.09-225.76-2.09L-225.76-2.09Q-226.76-2.09-227.34-1.62L-227.34-1.62L-226.29 7.11L-226.29 20.35Q-226.29 28.32-223.65 32.42L-223.65 32.42Q-226.46 35.41-230.65 37.08Q-234.84 38.75-239.18 38.75L-239.18 38.75Q-246.21 38.75-250.08 35.35L-250.08 35.35Q-254.77 31.25-254.77 22.40L-254.77 22.40L-254.77 1.84Q-254.77-2.09-257.34-2.09L-257.34-2.09Q-258.34-2.09-258.93-1.62L-258.93-1.62L-257.87 7.11L-257.87 22.64Q-257.87 29.20-256.11 32.77L-256.11 32.77Q-261.86 38.69-272.23 38.69L-272.23 38.69Q-278.38 38.69-282.60 35.59L-282.60 35.59Q-287.46 32.01-287.46 25.98L-287.46 25.98L-287.46-2.03Q-290.92-6.89-290.92-14.01Q-290.92-21.13-287.46-26.35L-287.46-26.35L-273.34-26.35Q-269.18-26.35-266.25-23.24L-266.25-23.24Q-268.83-20.84-268.83-19.26L-268.83-19.26Q-268.83-17.44-266.78-17.44L-266.78-17.44Q-264.20-21.89-259.69-24.53L-259.69-24.53Q-254.41-27.52-247.32-27.52L-247.32-27.52Q-241.93-27.52-237.86-25.23Q-233.79-22.95-231.80-19.96L-231.80-19.96Q-229.04-23.71-224.62-25.61Q-220.20-27.52-215.39-27.52L-215.39-27.52Q-204.79-27.52-198.93-20.96L-198.93-20.96Q-193.18-14.39-193.18-2.97L-193.18-2.97ZM-124.16 2.36L-124.16-2.73Q-124.16-8.59-124.69-10.79Q-125.21-12.99-126.62-12.99L-126.62-12.99Q-127.50-12.99-128.20-12.40L-128.20-12.40Q-128.09-11.35-127.85-9.59Q-127.62-7.83-127.62-2.09L-127.62-2.09L-127.62 1.72Q-127.62 5.70-127.79 7.52Q-127.97 9.34-128.09 10.63L-128.09 10.63Q-128.14 11.33-128.20 12.03L-128.20 12.03Q-127.50 12.62-126.62 12.62L-126.62 12.62Q-125.21 12.62-124.69 10.42Q-124.16 8.22-124.16 2.36L-124.16 2.36ZM-131.19 37.76L-146.02 37.76Q-152.52 37.76-156.06 34.30Q-159.61 30.84-159.61 23.87L-159.61 23.87L-159.61-28.87Q-159.61-33.32-150.67-36.39Q-141.74-39.47-130.72-39.47L-130.72-39.47Q-111.33-39.47-100.43-30.10L-100.43-30.10Q-88.71-20.02-88.71-0.04L-88.71-0.04Q-88.71 17.95-100.05 27.85Q-111.39 37.76-131.19 37.76L-131.19 37.76ZM-51.04 39.51L-51.04 39.51Q-67.27 39.51-76.64 30.49L-76.64 30.49Q-86.25 21.41-86.25 5.62Q-86.25-10.17-76.35-19.43L-76.35-19.43Q-67.21-28.05-53.20-28.05Q-39.20-28.05-30.73-20.34Q-22.27-12.64-22.27-1.39L-22.27-1.39Q-22.27 8.63-29.24 13.73L-29.24 13.73Q-35.68 18.54-46.82 18.54L-46.82 18.54Q-55.14 18.54-60.88 15.08L-60.88 15.08Q-61.35 15.43-61.35 16.37L-61.35 16.37Q-61.35 18.13-56.72 19.59L-56.72 19.59Q-52.09 21.17-46.20 21.17Q-40.31 21.17-35.48 19.68Q-30.64 18.19-27.71 16.13L-27.71 16.13Q-26.31 17.36-25.46 20.68Q-24.61 23.99-24.61 26.71Q-24.61 29.44-25.14 31.54L-25.14 31.54Q-29.71 35.41-34.51 37.05L-34.51 37.05Q-41.31 39.51-51.04 39.51ZM-51.80-0.15L-51.80-0.15Q-48.87-0.15-48.87-2.38L-48.87-2.38Q-48.87-4.49-51.97-4.49Q-55.08-4.49-55.55-1.15L-55.55-1.15Q-53.91-0.15-51.80-0.15ZM9.55 9.04L9.55 9.04L9.55 10.45Q9.55 11.45 9.61 11.86L9.61 11.86Q10.31 12.15 10.96 12.15L10.96 12.15Q12.66 12.15 12.66 9.86L12.66 9.86Q12.66 3.89 14.06-12.64L14.06-12.64Q14.82-21.60 15.00-23.18L15.00-23.18Q20.51-26.87 28.21-26.87Q35.92-26.87 40.14-22.77L40.14-22.77Q43.89-19.02 43.89-13.05L43.89-13.05Q43.89-9.00 42.77-4.67L42.77-4.67Q37.32 16.37 31.93 28.44L31.93 28.44Q29.06 34.71 23.20 36.99L23.20 36.99Q18.87 38.75 10.84 38.75L10.84 38.75Q6.56 38.75 2.37 38.05Q-1.82 37.35-4.04 36.41L-4.04 36.41Q-12.54 19.06-18.05-1.97L-18.05-1.97Q-19.86-3.79-21.15-7.07Q-22.44-10.35-22.44-13.87L-22.44-13.87Q-22.44-21.13-18.93-26.35L-18.93-26.35Q-18.93-26.35-4.34-26.35L-4.34-26.35Q3.34-26.35 7.09-22.01L7.09-22.01Q9.90-18.73 10.72-12.46L10.72-12.46Q9.55-1.56 9.55 9.04ZM79.51 39.51L79.51 39.51Q63.28 39.51 53.91 30.49L53.91 30.49Q44.30 21.41 44.30 5.62Q44.30-10.17 54.20-19.43L54.20-19.43Q63.34-28.05 77.34-28.05Q91.35-28.05 99.81-20.34Q108.28-12.64 108.28-1.39L108.28-1.39Q108.28 8.63 101.31 13.73L101.31 13.73Q94.86 18.54 83.73 18.54L83.73 18.54Q75.41 18.54 69.67 15.08L69.67 15.08Q69.20 15.43 69.20 16.37L69.20 16.37Q69.20 18.13 73.83 19.59L73.83 19.59Q78.46 21.17 84.35 21.17Q90.23 21.17 95.07 19.68Q99.90 18.19 102.83 16.13L102.83 16.13Q104.24 17.36 105.09 20.68Q105.94 23.99 105.94 26.71Q105.94 29.44 105.41 31.54L105.41 31.54Q100.84 35.41 96.04 37.05L96.04 37.05Q89.24 39.51 79.51 39.51ZM78.75-0.15L78.75-0.15Q81.68-0.15 81.68-2.38L81.68-2.38Q81.68-4.49 78.57-4.49Q75.47-4.49 75.00-1.15L75.00-1.15Q76.64-0.15 78.75-0.15ZM141.45-33.03L141.45-33.03L141.45 8.17Q141.45 16.90 145.66 19.53L145.66 19.53Q145.72 19.83 145.72 20.65L145.72 20.65L145.72 21.70Q145.72 30.08 141.47 34.42Q137.23 38.75 129.43 38.75Q121.64 38.75 117.07 34.42L117.07 34.42Q111.62 29.26 111.62 18.83L111.62 18.83L111.62-42.05Q117.77-45.80 125.71-45.80Q133.65-45.80 137.55-42.43Q141.45-39.06 141.45-33.03ZM177.95 5.06L177.95 5.06L177.95 15.31Q178.36 15.72 179.30 15.72Q180.23 15.72 180.64 15.08Q181.05 14.44 181.05 12.85L181.05 12.85L181.05 4.47Q181.05-1.15 180.59-3.00Q180.12-4.84 178.83-4.84L178.83-4.84Q178.01-4.84 177.42-4.26L177.42-4.26Q177.95 1.54 177.95 5.06ZM156.04 31.02L156.04 31.02Q146.43 21.76 146.43 5.91Q146.43-9.94 155.48-19.11Q164.53-28.28 179.24-28.28Q193.95-28.28 203.03-18.73L203.03-18.73Q212.05-9.18 212.05 6.14Q212.05 21.47 203.35 30.49Q194.65 39.51 179.71 39.51Q164.77 39.51 156.04 31.02ZM246.68 6.06L246.68 6.06L246.68 13.91Q247.09 14.32 248.03 14.32Q248.96 14.32 249.37 13.67Q249.79 13.03 249.79 11.45L249.79 11.45L249.79 5.47Q249.79-0.15 249.32-2.00Q248.85-3.85 247.56-3.85L247.56-3.85Q246.74-3.85 246.15-3.26L246.15-3.26Q246.68 2.54 246.68 6.06ZM227.99-19.20L227.99-19.20Q227.99-17.44 230.04-17.44L230.04-17.44Q233.55-22.95 238.30-25.61Q243.05-28.28 249.73-28.28Q256.41-28.28 261.91-26.17L261.91-26.17Q269.47-23.18 273.87-16.56L273.87-16.56Q279.37-8.18 279.37 5.41L279.37 5.41Q279.37 20.70 271.20 29.17Q263.03 37.64 248.55 37.64L248.55 37.64Q240.47 37.64 235.96 35.65L235.96 35.65Q235.55 35.88 235.55 36.64L235.55 36.64Q235.55 38.40 238.27 39.16Q241.00 39.92 247.68 40.27L247.68 40.27L247.68 55.86Q241.64 58.56 234.43 58.56L234.43 58.56Q225.94 58.56 221.60 55.45L221.60 55.45Q216.68 52.11 216.68 45.20L216.68 45.20L216.68-1.97Q213.22-6.83 213.22-14.04L213.22-14.04Q213.22-16.97 214.16-20.43Q215.10-23.89 216.68-26.35L216.68-26.35L225.00-26.35Q230.10-26.35 232.79-24.94L232.79-24.94Q227.99-21.37 227.99-19.20ZM316.93 39.51L316.93 39.51Q300.70 39.51 291.33 30.49L291.33 30.49Q281.72 21.41 281.72 5.62Q281.72-10.17 291.62-19.43L291.62-19.43Q300.76-28.05 314.77-28.05Q328.77-28.05 337.24-20.34Q345.70-12.64 345.70-1.39L345.70-1.39Q345.70 8.63 338.73 13.73L338.73 13.73Q332.29 18.54 321.15 18.54L321.15 18.54Q312.83 18.54 307.09 15.08L307.09 15.08Q306.62 15.43 306.62 16.37L306.62 16.37Q306.62 18.13 311.25 19.59L311.25 19.59Q315.88 21.17 321.77 21.17Q327.66 21.17 332.49 19.68Q337.32 18.19 340.25 16.13L340.25 16.13Q341.66 17.36 342.51 20.68Q343.36 23.99 343.36 26.71Q343.36 29.44 342.83 31.54L342.83 31.54Q338.26 35.41 333.46 37.05L333.46 37.05Q326.66 39.51 316.93 39.51ZM316.17-0.15L316.17-0.15Q319.10-0.15 319.10-2.38L319.10-2.38Q319.10-4.49 316.00-4.49Q312.89-4.49 312.42-1.15L312.42-1.15Q314.06-0.15 316.17-0.15ZM365.92 38.46L365.92 38.46Q358.95 38.46 354.79 35.94L354.79 35.94Q350.16 33.30 350.16 28.15L350.16 28.15L350.16-2.03Q346.70-6.89 346.70-14.01Q346.70-21.13 350.16-26.35L350.16-26.35L359.12-26.35Q366.04-26.35 369.02-21.89L369.02-21.89Q367.56-20.25 366.45-17.73Q365.33-15.21 365.33-14.13Q365.33-13.05 365.89-12.52Q366.45-11.99 367.50-11.99L367.50-11.99Q369.55-20.14 375.29-23.94L375.29-23.94Q380.04-27.17 387.01-27.17L387.01-27.17Q395.68-27.17 400.61-23.48L400.61-23.48Q402.36-18.79 402.36-12.02Q402.36-5.25 399.67 0.26L399.67 0.26Q397.68 1.31 394.16 2.04Q390.64 2.77 387.07 2.77Q383.50 2.77 380.65 2.28Q377.81 1.78 376.52 1.37L376.52 1.37Q376.05 1.84 376.05 2.72Q376.05 3.60 377.20 4.03Q378.34 4.47 381.04 5.00L381.04 5.00L381.04 34.42Q374.65 38.46 365.92 38.46Z"/></g>
<g transform="matrix(4.7006 0 0 4.7006 495.0443 560.6886)" id="661766">
<g style="" vector-effect="non-scaling-stroke">
		<g transform="matrix(1 0 0 1 45.6802 -24.8531)">
<path style="stroke: rgb(145,189,206); stroke-width: 3; stroke-dasharray: none; stroke-linecap: butt; stroke-dashoffset: 0; stroke-linejoin: miter; stroke-miterlimit: 10; is-custom-font: none; font-file-url: none; fill: rgb(255,255,255); fill-rule: nonzero; opacity: 1;" transform=" translate(-109.6802, -39.1468)" d="M 110.2 54.68 s 10.58 -5.06 13.09 -15.84 c 2.52 -10.79 -5.53 -17.56 -13.56 -14.48 C 100.5 27.89 95.6 35.8 95.6 35.8 l 14.6 18.88 z" stroke-linecap="round"/>
</g>
		<g transform="matrix(1 0 0 1 42.3616 -20.866)">
<path style="stroke: none; stroke-width: 1; stroke-dasharray: none; stroke-linecap: butt; stroke-dashoffset: 0; stroke-linejoin: miter; stroke-miterlimit: 4; is-custom-font: none; font-file-url: none; fill: rgb(145,189,206); fill-rule: nonzero; opacity: 1;" transform=" translate(-106.3616, -43.1341)" d="M 106.34 52.66 s 6.8 -11.71 8.39 -15.67 c 1.16 -2.88 0.67 -4.21 -2.81 -2.84 c -6.06 2.39 -14.49 5.88 -14.49 5.88 l 8.91 12.63 z" stroke-linecap="round"/>
</g>
		<g transform="matrix(1 0 0 1 -45.6788 -24.8528)">
<path style="stroke: rgb(145,189,206); stroke-width: 3; stroke-dasharray: none; stroke-linecap: butt; stroke-dashoffset: 0; stroke-linejoin: miter; stroke-miterlimit: 10; is-custom-font: none; font-file-url: none; fill: rgb(255,255,255); fill-rule: nonzero; opacity: 1;" transform=" translate(-18.3213, -39.1472)" d="M 17.8 54.68 S 7.22 49.62 4.71 38.84 s 5.53 -17.56 13.56 -14.48 C 27.5 27.89 32.4 35.8 32.4 35.8 L 17.8 54.68 z" stroke-linecap="round"/>
</g>
		<g transform="matrix(1 0 0 1 -42.3616 -20.866)">
<path style="stroke: none; stroke-width: 1; stroke-dasharray: none; stroke-linecap: butt; stroke-dashoffset: 0; stroke-linejoin: miter; stroke-miterlimit: 4; is-custom-font: none; font-file-url: none; fill: rgb(145,189,206); fill-rule: nonzero; opacity: 1;" transform=" translate(-21.6384, -43.1341)" d="M 21.66 52.66 s -6.8 -11.71 -8.39 -15.67 c -1.16 -2.88 -0.67 -4.21 2.81 -2.84 c 6.06 2.39 14.49 5.88 14.49 5.88 l -8.91 12.63 z" stroke-linecap="round"/>
</g>
		<g transform="matrix(1 0 0 1 -0.085 -0.0006)">
<path style="stroke: rgb(145,189,206); stroke-width: 3; stroke-dasharray: none; stroke-linecap: butt; stroke-dashoffset: 0; stroke-linejoin: miter; stroke-miterlimit: 10; is-custom-font: none; font-file-url: none; fill: rgb(255,255,255); fill-rule: nonzero; opacity: 1;" transform=" translate(-63.9151, -63.9994)" d="M 116.75 63.09 c -4.75 -18.3 -15.1 -31.76 -28.67 -38.59 c -7.73 -3.89 -13.54 -2.45 -18 -0.54 c -2.45 1.05 -4.56 1.31 -6.26 1.31 s -3.62 -0.27 -6.07 -1.31 c -4.46 -1.91 -10.27 -3.36 -18 0.54 c -13.57 6.84 -23.92 20.29 -28.67 38.59 c -4.8 18.51 2.36 25.76 8.28 31.64 c 8.61 8.54 27.26 11.43 44.56 11.22 c 17.3 0.21 35.95 -2.68 44.56 -11.22 c 5.91 -5.88 13.07 -13.13 8.27 -31.64 z" stroke-linecap="round"/>
</g>
		<g transform="matrix(1 0 0 1 0.0055 4.785)">
<path style="stroke: none; stroke-width: 1; stroke-dasharray: none; stroke-linecap: butt; stroke-dashoffset: 0; stroke-linejoin: miter; stroke-miterlimit: 4; is-custom-font: none; font-file-url: none; fill: rgb(207,216,220); fill-rule: nonzero; opacity: 1;" transform=" translate(-64.0055, -68.785)" d="M 83.94 58.62 C 78.38 44.59 67.83 42.86 64 42.86 s -14.38 1.73 -19.94 15.76 c -2.97 7.5 -4.87 13.28 -3.65 19.09 c 2.42 11.57 11.9 17 23.6 17 s 21.18 -5.44 23.6 -17 c 1.2 -5.81 -0.69 -11.59 -3.67 -19.09 z" stroke-linecap="round"/>
</g>
		<g transform="matrix(1 0 0 1 0.0025 6.7132)">
<path style="stroke: none; stroke-width: 1; stroke-dasharray: none; stroke-linecap: butt; stroke-dashoffset: 0; stroke-linejoin: miter; stroke-miterlimit: 4; is-custom-font: none; font-file-url: none; fill: rgb(35,31,32); fill-rule: nonzero; opacity: 1;" transform=" translate(-64.0025, -70.7132)" d="M 75.42 75.07 c -1.19 -0.9 -3.34 -2.1 -6.15 -3.14 c -1.64 -0.61 -2.85 -2 -2.77 -3.74 c 0.09 -1.93 0.16 -4.02 0.06 -4.24 c -0.24 -0.53 -1.71 -0.91 -2.44 -0.85 h -0.24 c -0.73 -0.06 -2.21 0.32 -2.44 0.85 c -0.08 0.19 -0.04 1.79 0.03 3.47 c 0.09 2.1 -1.28 3.87 -3.23 4.65 c -2.52 1 -4.54 2.16 -5.65 3.01 c -0.68 0.51 -1.22 1.5 -0.89 2.39 c 0.43 1.14 2.34 0.98 3.42 0.49 c 2.9 -1.32 5.57 -2.01 8.88 -2.01 c 3.32 0 5.98 0.69 8.88 2.01 c 1.08 0.49 2.99 0.65 3.42 -0.49 c 0.34 -0.9 -0.2 -1.89 -0.88 -2.4 z" stroke-linecap="round"/>
</g>
		<g transform="matrix(1 0 0 1 -0.0006 -4.1213)">
<path style="stroke: none; stroke-width: 1; stroke-dasharray: none; stroke-linecap: butt; stroke-dashoffset: 0; stroke-linejoin: miter; stroke-miterlimit: 4; is-custom-font: none; font-file-url: none; fill: rgb(35,31,32); fill-rule: nonzero; opacity: 1;" transform=" translate(-63.9994, -59.8787)" d="M 70.56 52.25 c -2.97 -1.87 -9.55 -1.79 -13.36 0 c -1.82 0.85 -5.98 5.12 -4.8 9.68 c 0.51 1.98 1.92 3.57 3.39 4.46 c 1.81 1.09 7.5 2.5 8.09 2.49 c 0.59 0.01 6.53 -1.65 8.34 -2.74 c 1.47 -0.89 2.88 -2.48 3.39 -4.46 c 1.19 -4.55 -3.35 -8.36 -5.05 -9.43 z" stroke-linecap="round"/>
</g>
		<g transform="matrix(1 0 0 1 23.28 -16.76)">
<circle style="stroke: none; stroke-width: 1; stroke-dasharray: none; stroke-linecap: butt; stroke-dashoffset: 0; stroke-linejoin: miter; stroke-miterlimit: 4; is-custom-font: none; font-file-url: none; fill: rgb(35,31,32); fill-rule: nonzero; opacity: 1;" cx="0" cy="0" r="4.42"/>
</g>
		<g transform="matrix(1 0 0 1 -23.28 -16.76)">
<circle style="stroke: none; stroke-width: 1; stroke-dasharray: none; stroke-linecap: butt; stroke-dashoffset: 0; stroke-linejoin: miter; stroke-miterlimit: 4; is-custom-font: none; font-file-url: none; fill: rgb(35,31,32); fill-rule: nonzero; opacity: 1;" cx="0" cy="0" r="4.42"/>
</g>
</g>
</g>
</svg>